<svg width="16" height="16" viewBox="0 0 16 16" fill="none" xmlns="http://www.w3.org/2000/svg">
<g clip-path="url(#clip0_101_6)">
<path fill-rule="evenodd" clip-rule="evenodd" d="M8 14.5C9.1411 14.5017 10.2623 14.2015 11.25 13.63V11.5C11.25 10.9033 11.0129 10.331 10.591 9.90901C10.169 9.48705 9.59674 9.25 9 9.25H7C6.40326 9.25 5.83097 9.48705 5.40901 9.90901C4.98705 10.331 4.75 10.9033 4.75 11.5V13.63C5.73766 14.2015 6.8589 14.5017 8 14.5ZM12.75 11.5V12.437C13.6147 11.5113 14.1901 10.3531 14.4054 9.10483C14.6207 7.85653 14.4666 6.57251 13.962 5.41062C13.4574 4.24874 12.6243 3.25961 11.5651 2.56484C10.5059 1.87007 9.26673 1.49994 8 1.49994C6.73327 1.49994 5.49413 1.87007 4.43493 2.56484C3.37573 3.25961 2.54261 4.24874 2.038 5.41062C1.53339 6.57251 1.37927 7.85653 1.59459 9.10483C1.80992 10.3531 2.3853 11.5113 3.25 12.437V11.5C3.24999 10.7269 3.48881 9.97263 3.9338 9.34041C4.37879 8.70819 5.00822 8.22887 5.736 7.968C5.35839 7.53366 5.11368 6.99987 5.03107 6.4303C4.94845 5.86072 5.03142 5.27941 5.27008 4.75568C5.50873 4.23196 5.89299 3.78794 6.37704 3.47658C6.86108 3.16523 7.42447 2.99967 8 2.99967C8.57553 2.99967 9.13892 3.16523 9.62296 3.47658C10.107 3.78794 10.4913 4.23196 10.7299 4.75568C10.9686 5.27941 11.0515 5.86072 10.9689 6.4303C10.8863 6.99987 10.6416 7.53366 10.264 7.968C10.9918 8.22887 11.6212 8.70819 12.0662 9.34041C12.5112 9.97263 12.75 10.7269 12.75 11.5ZM8 16C10.1217 16 12.1566 15.1571 13.6569 13.6569C15.1571 12.1566 16 10.1217 16 8C16 5.87827 15.1571 3.84344 13.6569 2.34315C12.1566 0.842855 10.1217 0 8 0C5.87827 0 3.84344 0.842855 2.34315 2.34315C0.842855 3.84344 0 5.87827 0 8C0 10.1217 0.842855 12.1566 2.34315 13.6569C3.84344 15.1571 5.87827 16 8 16ZM9.5 6C9.5 6.39782 9.34196 6.77936 9.06066 7.06066C8.77936 7.34196 8.39782 7.5 8 7.5C7.60218 7.5 7.22064 7.34196 6.93934 7.06066C6.65804 6.77936 6.5 6.39782 6.5 6C6.5 5.60218 6.65804 5.22064 6.93934 4.93934C7.22064 4.65804 7.60218 4.5 8 4.5C8.39782 4.5 8.77936 4.65804 9.06066 4.93934C9.34196 5.22064 9.5 5.60218 9.5 6Z" fill="white"/>
<path d="M7.845 12.1417C7.97333 11.91 8.22 11.7733 8.36333 11.5683C8.515 11.3533 8.43 10.9517 8 10.9517C7.71833 10.9517 7.58 11.165 7.52167 11.3417L7.09 11.16C7.20833 10.805 7.53 10.5 7.99833 10.5C8.39 10.5 8.65833 10.6783 8.795 10.9017C8.91167 11.0933 8.98 11.4517 8.8 11.7183C8.6 12.0133 8.40833 12.1033 8.305 12.2933C8.26333 12.37 8.24667 12.42 8.24667 12.6667H7.765C7.76333 12.5367 7.74333 12.325 7.845 12.1417ZM8.33333 13.3333C8.33333 13.5167 8.18333 13.6667 8 13.6667C7.81667 13.6667 7.66667 13.5167 7.66667 13.3333C7.66667 13.15 7.81667 13 8 13C8.18333 13 8.33333 13.15 8.33333 13.3333Z" fill="white"/>
</g>
<defs>
<clipPath id="clip0_101_6">
<rect width="16" height="16" fill="white"/>
</clipPath>
</defs>
</svg>
